<svg width="56" height="56" viewBox="0 0 56 56" fill="none" xmlns="http://www.w3.org/2000/svg">
<rect width="56" height="56" rx="28" fill="#F2D76E"/>
<g clip-path="url(#clip0_37_316)">
<path d="M40 22.24C40 29.88 29.87 40 22.24 40C20.57 40 19.01 39.37 17.86 38.22L16.86 37.07C15.7 35.91 15.7 33.95 16.91 32.74C16.94 32.71 19.35 30.86 19.35 30.86C20.55 29.72 22.44 29.72 23.63 30.86L25.09 32.03C28.29 30.67 30.56 28.39 32.02 25.08L30.86 23.62C29.71 22.43 29.71 20.53 30.86 19.34C30.86 19.34 32.71 16.93 32.74 16.9C33.95 15.69 35.91 15.69 37.12 16.9L38.17 17.81C39.37 19 40 20.56 40 22.23V22.24Z" fill="#101010"/>
</g>
<defs>
<clipPath id="clip0_37_316">
<rect width="24" height="24" fill="white" transform="translate(16 16)"/>
</clipPath>
</defs>
</svg>
